<svg width="81" height="81" viewBox="0 0 81 81" fill="none" xmlns="http://www.w3.org/2000/svg">
<path d="M2 4V77.5C2 78.6046 2.89543 79.5 4 79.5H77.5C78.6046 79.5 79.5 78.6046 79.5 77.5V4C79.5 2.89543 78.6046 2 77.5 2H4C2.89543 2 2 2.89543 2 4Z" stroke="black" stroke-width="3" stroke-linecap="round" stroke-linejoin="round"/>
<path d="M19.5 16V32.5M19.5 32.5H27.5M19.5 32.5C19.5 33.9619 20.0386 37.014 22.0606 38.8216C22.5957 39.2999 23 39.9429 23 40.6606V61C23 65.5 31 66.5 31.5 61V40.4075C31.5 39.8308 31.753 39.2873 32.1571 38.8759C33.5554 37.4522 35.5 34.891 35.5 32.5M35.5 32.5V16M35.5 32.5H27.5M27.5 32.5V16" stroke="black" stroke-width="3" stroke-linecap="round" stroke-linejoin="round"/>
<path d="M50.5 61V16C62.5 17.6 63.5 32.3333 62.5 39.5H58.5V61C56.1 66.2 52.1667 63.1667 50.5 61Z" stroke="black" stroke-width="3" stroke-linecap="round" stroke-linejoin="round"/>
</svg>
