<svg width="84" height="81" viewBox="0 0 84 81" fill="none" xmlns="http://www.w3.org/2000/svg">
<path d="M23.8136 67.5V49.9018M23.8136 25.9018V38M23.8136 38L29.8136 33.4018M23.8136 38V49.9018M23.8136 49.9018C34.9998 49.9018 51.5002 34.5 35 16.9999C40.0001 -0.500009 7.9999 -5.50001 10.4996 16.9999C1.49998 25.9018 -2.1864 46.3018 23.8136 49.9018Z" stroke="black" stroke-width="3" stroke-linecap="round" stroke-linejoin="round"/>
<path d="M3.00001 79C-1.5 72 8.00006 53 19.5 69.5C23.5 67 30.6998 67.4001 31.4998 79" stroke="black" stroke-width="3" stroke-linejoin="round"/>
<path d="M3 79H31.5001H39.0001M82 79H81.5001M39.0001 79L42.5001 69.75M39.0001 79H50.0001M46.0001 60.5L42.5001 69.75M46.0001 60.5H43.0001C41.8956 60.5 41.0001 59.6046 41.0001 58.5V53.5C41.0001 52.3954 41.8956 51.5 43.0001 51.5H78.5001C79.6047 51.5 80.5001 52.3954 80.5001 53.5V58.5C80.5001 59.6046 79.6047 60.5 78.5001 60.5H46.0001ZM42.5001 69.75H39.0001M50.0001 79H72.0001M50.0001 79L53.2501 69.75M56.5001 60.5L53.2501 69.75M72.0001 79L69.2501 69.75M72.0001 79H81.5001M66.5001 60.5L69.2501 69.75M53.2501 69.75H69.2501M81.5001 79L78.7501 69.75M76.0001 60.5L78.7501 69.75M78.7501 69.75H81.5001" stroke="black" stroke-width="3" stroke-linecap="round" stroke-linejoin="round"/>
</svg>
