<svg width="65" height="85" viewBox="0 0 65 85" fill="none" xmlns="http://www.w3.org/2000/svg">
<path d="M65 31.1765C65 34.9462 64.1594 38.679 62.5261 42.1617C60.8928 45.6445 58.4989 48.809 55.481 51.4746C52.4631 54.1402 48.8803 56.2546 44.9372 57.6972C40.9941 59.1398 36.768 59.8823 32.5 59.8823C28.232 59.8823 24.0059 59.1398 20.0628 57.6972C16.1197 56.2546 12.5369 54.1402 9.51903 51.4746C6.50112 48.809 4.10719 45.6445 2.47391 42.1617C0.840637 38.679 -3.73117e-07 34.9462 0 31.1765L32.5 31.1765H65Z" fill="black"/>
<path d="M21.3966 62.947C21.7896 61.6234 21.0353 60.2318 19.7117 59.8387C18.3881 59.4457 16.9965 60.2 16.6034 61.5236L21.3966 62.947ZM10.6111 81.2631C10.2041 82.5825 10.9437 83.9819 12.2631 84.3889C13.5825 84.7959 14.9819 84.0563 15.3889 82.7369L10.6111 81.2631ZM49.8426 70.6536V73.1536H53.1333L52.2511 69.9834L49.8426 70.6536ZM49.9085 61.5651C49.5383 60.2349 48.16 59.4567 46.8298 59.8268C45.4996 60.197 44.7214 61.5753 45.0915 62.9055L49.9085 61.5651ZM50.5915 82.6702C50.9617 84.0004 52.34 84.7786 53.6702 84.4085C55.0004 84.0383 55.7786 82.6599 55.4085 81.3298L50.5915 82.6702ZM16.6034 61.5236L14.1034 69.9419L18.8966 71.3653L21.3966 62.947L16.6034 61.5236ZM14.1111 69.9167L10.6111 81.2631L15.3889 82.7369L18.8889 71.3905L14.1111 69.9167ZM16.5 73.1536H49.8426V68.1536H16.5V73.1536ZM52.2511 69.9834L49.9085 61.5651L45.0915 62.9055L47.4341 71.3238L52.2511 69.9834ZM45.0915 62.9055L50.5915 82.6702L55.4085 81.3298L49.9085 61.5651L45.0915 62.9055Z" fill="black"/>
<path d="M20.1777 22.7059C18.678 21.7647 15.1777 18.9412 18.178 13.2941C19.9281 10 25.178 7.64706 19.678 2" stroke="black" stroke-width="4" stroke-linecap="round" stroke-linejoin="round"/>
<path d="M33.3555 23.1765C31.8557 22.2353 28.3555 19.4118 31.3557 13.7647C33.1058 10.4706 38.3558 8.11764 32.8558 2.47058" stroke="black" stroke-width="4" stroke-linecap="round" stroke-linejoin="round"/>
<path d="M46.3555 23.1765C44.8557 22.2353 41.3555 19.4118 44.3557 13.7647C46.1058 10.4706 51.3558 8.11764 45.8558 2.47058" stroke="black" stroke-width="4" stroke-linecap="round" stroke-linejoin="round"/>
</svg>
