<svg width="51" height="79" viewBox="0 0 51 79" fill="none" xmlns="http://www.w3.org/2000/svg">
<path fill-rule="evenodd" clip-rule="evenodd" d="M47.0725 38.5655C49.4132 34.7229 50.7615 30.2093 50.7615 25.3808C50.7615 11.3634 39.3982 0 25.3808 0C11.3634 0 0 11.3634 0 25.3808C0 30.3342 1.41903 34.9563 3.87276 38.8626L25.8314 79L47.0725 38.5655Z" fill="black"/>
<ellipse cx="25.3805" cy="24.2443" rx="20.0773" ry="19.6985" fill="white"/>
<path fill-rule="evenodd" clip-rule="evenodd" d="M22.0499 18.364C21.5319 17.444 20.546 16.8227 19.415 16.8227C18.431 16.8227 17.5568 17.293 17.0051 18.0211L14.6226 20.4971C13.7344 21.0234 13.1389 21.9915 13.1389 23.0987C13.1389 24.7676 14.4918 26.1205 16.1607 26.1205C17.2792 26.1205 18.2557 25.5129 18.7782 24.6097L19.583 24.6028C20.1045 25.5098 21.0832 26.1205 22.2045 26.1205C23.8734 26.1205 25.2264 24.7676 25.2264 23.0987C25.2264 22.1083 24.7499 21.2292 24.0137 20.6781L22.0499 18.364Z" fill="black"/>
<ellipse cx="13.3889" cy="15.6997" rx="1.73882" ry="2.52846" transform="rotate(-30.5002 13.3889 15.6997)" fill="black"/>
<ellipse cx="17.0717" cy="12.8441" rx="1.90424" ry="2.63352" transform="rotate(-4.11009 17.0717 12.8441)" fill="black"/>
<ellipse cx="21.4586" cy="12.7377" rx="1.90424" ry="2.63352" transform="rotate(8.59332 21.4586 12.7377)" fill="black"/>
<ellipse cx="25.1826" cy="15.7071" rx="1.82537" ry="2.52445" transform="rotate(25.9327 25.1826 15.7071)" fill="black"/>
<path fill-rule="evenodd" clip-rule="evenodd" d="M34.8079 30.9156C34.2898 29.9959 33.3041 29.3748 32.1733 29.3748C31.1889 29.3748 30.3145 29.8455 29.7628 30.5741L27.3813 33.0491C26.4929 33.5753 25.8972 34.5435 25.8972 35.6509C25.8972 37.3198 27.2501 38.6727 28.919 38.6727C30.0375 38.6727 31.0141 38.065 31.5365 37.1619L32.3413 37.1549C32.8628 38.0619 33.8415 38.6727 34.9628 38.6727C36.6317 38.6727 37.9847 37.3198 37.9847 35.6509C37.9847 34.6607 37.5084 33.7817 36.7724 33.2306L34.8079 30.9156Z" fill="black"/>
<ellipse cx="26.1472" cy="28.2519" rx="1.73882" ry="2.52846" transform="rotate(-30.5002 26.1472 28.2519)" fill="black"/>
<ellipse cx="29.8298" cy="25.3962" rx="1.90424" ry="2.63352" transform="rotate(-4.11009 29.8298 25.3962)" fill="black"/>
<ellipse cx="34.2171" cy="25.2899" rx="1.90424" ry="2.63352" transform="rotate(8.59332 34.2171 25.2899)" fill="black"/>
<ellipse cx="37.9407" cy="28.2593" rx="1.82537" ry="2.52445" transform="rotate(25.9327 37.9407 28.2593)" fill="black"/>
</svg>
