<svg width="78" height="81" viewBox="0 0 78 81" fill="none" xmlns="http://www.w3.org/2000/svg">
<path d="M64.2653 56.4635C64.3259 52.8907 60.3007 51.1706 57.4046 51.9324C50.6472 53.7098 49.6889 60.631 53.2011 64.2645C54.548 65.6578 59.2246 68.5712 62.2454 63.9975M40.332 69.787L66.6042 76.8306C67.6711 77.1167 68.7678 76.4837 69.0539 75.4168L76.0975 49.1446C76.3836 48.0777 75.7506 46.981 74.6837 46.6949L48.4115 39.6512C47.3446 39.3652 46.2479 39.9982 45.9618 41.0651L38.9181 67.3373C38.6321 68.4042 39.2651 69.5009 40.332 69.787Z" stroke="black" stroke-width="3" stroke-linecap="round" stroke-linejoin="round"/>
<path d="M20.2 62.5333C22.8 63.4 28 72.0667 14.1333 70.3333V62.5333M20.2 62.5333C25.4 60.8 22.8 53.8667 14.1333 56.4667V62.5333M20.2 62.5333H14.1333M4 79H31.2C32.3046 79 33.2 78.1046 33.2 77V49.8C33.2 48.6954 32.3046 47.8 31.2 47.8H4C2.89543 47.8 2 48.6954 2 49.8V77C2 78.1046 2.89543 79 4 79Z" stroke="black" stroke-width="3" stroke-linejoin="round"/>
<path d="M33.6145 30.0013L34.0057 25.2281M45.7899 25.4453L42.6001 22.0121M42.6001 22.0121L34.9445 13.7725L34.0057 25.2281M42.6001 22.0121L34.0057 25.2281M30.7117 41.2664L56.1866 31.7338C57.2211 31.3467 57.7459 30.1942 57.3588 29.1597L47.5224 2.87316C47.1353 1.83864 45.9829 1.31382 44.9484 1.70093L19.4735 11.2336C18.439 11.6207 17.9142 12.7731 18.3013 13.8076L28.1376 40.0942C28.5247 41.1287 29.6772 41.6535 30.7117 41.2664Z" stroke="black" stroke-width="3" stroke-linecap="round" stroke-linejoin="round"/>
</svg>
