<svg width="76" height="81" viewBox="0 0 76 81" fill="none" xmlns="http://www.w3.org/2000/svg">
<path d="M37.1249 79L37.0107 80.4957C37.4173 80.5267 37.819 80.3909 38.1233 80.1195C38.4276 79.8481 38.6083 79.4645 38.6238 79.057L37.1249 79ZM38.1071 53.1709L37.7459 51.715L37.7019 51.7259L37.6586 51.7395L38.1071 53.1709ZM69.5409 49.7595L69.6004 51.2583C70.1248 51.2375 70.6002 50.9441 70.854 50.4846L69.5409 49.7595ZM47.9302 2L48.3881 0.571601C47.7725 0.374247 47.0997 0.593534 46.7186 1.11575L47.9302 2ZM14.5319 60.9684L14.0228 62.3793C14.3122 62.4837 14.6267 62.4966 14.9237 62.4163L14.5319 60.9684ZM2.74426 37.0886L1.97164 35.8029C1.62891 36.0089 1.3826 36.3431 1.2874 36.7315L2.74426 37.0886ZM27.7929 65.3544L29.2928 65.3743L27.7929 65.3544ZM45.1114 18.5696L43.6136 18.6504L45.1114 18.5696ZM38.6238 79.057L39.606 53.2279L36.6082 53.1139L35.626 78.943L38.6238 79.057ZM38.4682 54.6268C48.1229 52.2318 57.3099 51.7461 69.6004 51.2583L69.4814 48.2607C57.2141 48.7476 47.7375 49.2365 37.7459 51.715L38.4682 54.6268ZM70.854 50.4846C74.2571 44.322 76.9629 34.5537 74.6207 24.9163C72.2476 15.152 64.7662 5.82195 48.3881 0.571601L47.4723 3.4284C63.019 8.41222 69.6173 17.0326 71.7055 25.6248C73.8246 34.344 71.3733 43.3383 68.2278 49.0344L70.854 50.4846ZM15.041 59.5574C12.5895 58.6729 9.03084 56.4842 6.51961 52.8537C4.04674 49.2786 2.53658 44.2358 4.20113 37.4458L1.2874 36.7315C-0.584347 44.3667 1.09798 50.2891 4.05233 54.5603C6.96833 58.776 11.0716 61.3145 14.0228 62.3793L15.041 59.5574ZM37.239 77.5043C36.0427 77.413 33.9687 77.388 32.1208 76.7925C31.2175 76.5014 30.5056 76.1113 30.0316 75.6197C29.5942 75.1659 29.2929 74.561 29.2929 73.6392H26.2929C26.2929 75.3328 26.8921 76.6854 27.8718 77.7018C28.815 78.6802 30.037 79.2729 31.2007 79.6479C33.4867 80.3845 36.0787 80.4245 37.0107 80.4957L37.239 77.5043ZM37.6586 51.7395C35.71 52.3501 32.7244 53.2083 27.2838 55.1713L28.302 57.9932C33.6667 56.0576 36.5749 55.2229 38.5556 54.6023L37.6586 51.7395ZM29.2929 73.6392C29.2929 71.1756 29.2577 68.0177 29.2928 65.3743L26.293 65.3345C26.2577 68.0016 26.2929 71.2295 26.2929 73.6392H29.2929ZM29.2928 65.3743C29.3164 63.5876 29.3164 61.3845 29.3105 59.6329C29.3076 58.7561 29.3032 57.9904 29.2995 57.4439C29.2976 57.1706 29.296 56.9521 29.2948 56.8017C29.2942 56.7266 29.2937 56.6684 29.2934 56.6291C29.2932 56.6094 29.2931 56.5943 29.293 56.5842C29.2929 56.5792 29.2929 56.5753 29.2929 56.5728C29.2929 56.5715 29.2928 56.5705 29.2928 56.5698C29.2928 56.5695 29.2928 56.5692 29.2928 56.5691C29.2928 56.569 29.2928 56.5689 29.2928 56.5689C29.2928 56.5688 29.2928 56.5688 27.7929 56.5823C26.293 56.5958 26.293 56.5958 26.293 56.5958C26.293 56.5958 26.293 56.5959 26.293 56.596C26.293 56.5961 26.293 56.5963 26.293 56.5966C26.293 56.5972 26.293 56.5982 26.293 56.5994C26.293 56.6019 26.293 56.6056 26.2931 56.6105C26.2932 56.6204 26.2933 56.6351 26.2935 56.6546C26.2938 56.6934 26.2943 56.751 26.2949 56.8256C26.2961 56.9749 26.2977 57.1922 26.2995 57.4641C26.3032 58.0081 26.3076 58.7703 26.3105 59.643C26.3164 61.3906 26.3164 63.5736 26.293 65.3345L29.2928 65.3743ZM46.5316 1.45786C44.6933 6.20027 43.2669 12.2216 43.6136 18.6504L46.6092 18.4888C46.291 12.5882 47.6017 6.99766 49.3288 2.54214L46.5316 1.45786ZM43.6136 18.6504C44.0652 27.0249 47.5262 36.0105 56.8003 43.6387L58.706 41.3218C50.1228 34.2618 47.0186 26.0793 46.6092 18.4888L43.6136 18.6504ZM56.8003 43.6387C60.0824 46.3383 64.0789 48.8567 68.9044 51.1178L70.1773 48.4012C65.5501 46.2331 61.7718 43.8435 58.706 41.3218L56.8003 43.6387ZM44.8394 20.0448C48.2095 20.6661 52.7629 22.535 55.6127 25.9895C57.0169 27.6916 58.0149 29.7838 58.2763 32.3488C58.5387 34.9234 58.0679 38.0676 56.3818 41.8725L59.1245 43.0879C60.9747 38.9128 61.5869 35.2432 61.2609 32.0446C60.9339 28.8364 59.6721 26.1959 57.9269 24.0804C54.4779 19.8997 49.1741 17.7933 45.3834 17.0945L44.8394 20.0448ZM3.51689 38.3743C5.71553 37.0531 8.39569 35.3861 11.3535 33.4751L9.72544 30.9553C6.79232 32.8504 4.13983 34.5 1.97164 35.8029L3.51689 38.3743ZM11.3535 33.4751C17.7446 29.3458 25.4552 24.0621 32.4182 18.6497C39.3472 13.2638 45.6577 7.65845 49.1419 2.88425L46.7186 1.11575C43.5014 5.52413 37.4842 10.9122 30.5771 16.2811C23.7039 21.6237 16.0698 26.8562 9.72544 30.9553L11.3535 33.4751ZM27.2838 55.1713C24.6178 56.1333 24.7427 56.1856 21.9247 57.1057L22.8558 59.9576C25.7013 59.0285 25.8432 58.8804 28.302 57.9932L27.2838 55.1713ZM21.9247 57.1057C20.2672 57.6469 16.0812 58.9951 14.1401 59.5204L14.9237 62.4163C16.9547 61.8666 21.221 60.4913 22.8558 59.9576L21.9247 57.1057ZM9.13016 31.7015C7.36009 36.5579 6.81387 41.9274 8.6307 46.9777C10.4589 52.0597 14.5992 56.594 21.7626 59.894L23.0179 57.1693C16.429 54.1339 12.9564 50.1397 11.4536 45.9622C9.93937 41.753 10.3439 37.132 11.9488 32.7289L9.13016 31.7015Z" fill="black"/>
</svg>
